<?xml version="1.0" standalone="no"?>
<!DOCTYPE svg PUBLIC "-//W3C//DTD SVG 1.1//EN" "http://www.w3.org/Graphics/SVG/1.1/DTD/svg11.dtd" >
<svg xmlns="http://www.w3.org/2000/svg">
<metadata>Generated by IcoMoon</metadata>
<defs>
<font id="icomoon" horiz-adv-x="512">
<font-face units-per-em="512" ascent="450.56" descent="-61.44" />
<missing-glyph horiz-adv-x="512" />
<glyph unicode="&#x20;" d="" horiz-adv-x="256" />
<glyph unicode="&#xe600;" d="M0.96 373.824l82.72-189.952-82.72-189.824h510.112v379.776h-510.112zM252.256 272.928l1.888 48.16 37.056-30.784 46.336 13.088-17.792-44.736 26.72-40.032-48.064 3.104-29.76-37.856-11.936 46.72-45.152 16.672 40.704 25.664zM190.272 83.232h-18.336v-31.008h-16.384v89.92h34.72c16.832 0 28.608-11.776 28.608-29.248s-11.776-29.664-28.608-29.664zM283.2 52.224l-17.856 33.568h-15.712v-33.568h-16.352v89.92h28.992c9.76 0 14.176-0.736 18.112-2.528 8.992-4.032 14.656-12.672 14.656-24.576 0-10.752-5.664-20.768-15.168-24.576v-0.256c0 0 1.248-1.28 3.040-4.448l18.464-33.568h-18.176zM356.32 50.688c-26.432 0-46.464 20.672-46.464 47.136 0 25.728 20.032 45.824 46.464 45.824 26.464 0 46.496-20.096 46.496-45.824 0-26.496-20.032-47.136-46.496-47.136zM262.016 128.064h-12.384v-28.096h14.688c8.704 0 14.176 5.184 14.176 14.176 0 8.64-3.68 13.92-16.48 13.92zM356.32 128.672c-16.448 0-29.632-13.152-29.632-30.88 0-18.496 13.184-32.192 29.632-32.192 16.48 0 29.664 13.696 29.664 32.192 0 17.728-13.216 30.88-29.664 30.88zM187.488 128.064h-15.552v-30.656h15.296c9.504 0 15.072 6.112 15.072 15.456 0 9.248-5.6 15.2-14.816 15.2z" />
<glyph unicode="&#xe601;" d="M79.616 272.096c24.032 18.656 43.968 5.792 70.56-24.96 3.008-3.456 7.040 0.576 9.312 2.592 2.272 1.984 37.408 33.536 39.104 35.040 1.728 1.472 3.744 4.288 1.024 7.456-2.752 3.136-12.704 16.096-19.136 24.448-46.528 60.928 127.392 102.176 100.64 102.88-13.568 0.352-68.064 0.96-76.224 0.096-33.056-3.488-74.528-34.368-95.424-48.704-27.328-18.72-37.472-29.696-39.2-31.168-7.744-6.72-1.248-22.336-15.232-34.624-14.816-13.024-24.032-3.2-32.608-10.688-4.288-3.744-16.16-12.64-19.584-15.648-3.392-3.008-4.032-8.096-0.512-12.128 0 0 32.544-35.968 35.264-39.104 2.752-3.136 10.048-5.856 14.624-1.888 4.544 4 16.256 14.24 18.24 16.032 2.016 1.76-1.312 22.24 9.152 30.368zM226.624 258.816c-3.072 3.52-6.912 3.616-10.24 0.672l-36.928-32.192c-2.912-2.56-3.328-7.296-0.736-10.336l213.568-242.944c4.96-5.76 13.632-6.368 19.328-1.376l24.992 20.896c5.728 5.024 6.272 13.792 1.344 19.488l-211.328 245.792zM511.36 362.208c-1.92 12.768-8.544 10.048-11.936 4.672s-18.56-28.352-24.768-38.72c-6.176-10.336-21.408-30.656-49.792-10.592-29.568 20.896-19.328 35.456-14.112 45.344 5.152 9.824 21.024 37.44 23.328 40.864 2.272 3.488-0.384 13.6-9.6 9.344-9.152-4.224-64.896-26.432-72.672-58.144-7.904-32.384 6.592-61.248-21.92-89.984l-34.496-36.032 34.72-40.352 42.56 40.448c10.176 10.208 31.84 20.096 51.424 15.68 42.048-9.504 64.992 6.272 78.784 32.352 12.448 23.296 10.368 72.448 8.48 85.12zM69.44 10.464c-5.344-5.376-5.344-14.112 0-19.52l24.512-23.936c5.376-5.408 13.856-3.136 19.2 2.272l126.368 124.224-38.72 44.064-131.36-127.104z" />
<glyph unicode="&#xe602;" d="M341.888 353.152v-69.12c42.208-27.936 70.176-75.84 70.176-130.176 0-86.080-70.016-156.096-156.096-156.096-86.048 0-156.064 70.016-156.064 156.096 0 56.448 30.208 105.856 75.232 133.28v68.064c-79.776-32.16-136.256-110.208-136.256-201.312 0-119.712 97.376-217.12 217.12-217.12s217.12 97.408 217.12 217.12c-0.096 89.152-54.144 165.92-131.232 199.264zM259.392 186.88c20.992 0 38.048 14.464 38.048 32.32v195.744c0 17.856-17.056 32.32-38.048 32.32-20.992 0-38.016-14.464-38.016-32.32v-195.712c0-17.888 17.024-32.352 38.016-32.352z" />
<glyph unicode="&#xe603;" d="M405.312 234.656v64c0 0 0 149.344-149.344 149.344-149.312 0-149.312-149.344-149.312-149.344v-64h-63.968v-298.656h426.656v298.656h-64.032zM277.312 69.92v-69.92h-42.624v69.92c-12.704 7.392-21.344 20.992-21.344 36.704 0 23.616 19.104 42.72 42.656 42.72 23.552 0 42.656-19.104 42.656-42.72 0.032-15.712-8.64-29.344-21.344-36.704zM341.28 234.656h-170.624v64c0.224 17.856-0.032 85.344 85.344 85.344 85.312 0 85.088-67.744 85.312-85.344v-64h-0.032z" />
<glyph unicode="&#xe604;" d="M461.44 240.768c0 113.44-91.936 205.44-205.408 205.44s-205.472-92-205.472-205.44c0-94.336 63.744-173.728 150.464-197.792l55.040-105.248 50.592 104.128c88.896 22.592 154.784 102.944 154.784 198.912zM361.984 217.344h-83.328v-88.384h-49.376v88.384h-83.36v47.296h83.36v87.136h49.376v-87.136h83.328v-47.296z" />
<glyph unicode="&#xe605;" d="M115.2 388.416c0-30.048-22.176-54.4-58.688-54.4-34.336 0-56.512 24.352-56.512 54.4 0 30.784 22.912 54.368 57.952 54.368 35.008 0 56.512-23.584 57.248-54.368zM2.88-58.784v349.888h108.736v-349.824l-108.736-0.064zM177.28 291.104l96.16-0.256-0.192-48.384h2.176c14.336 22.88 49.344 56.544 108 56.544 71.552 0 125.184-47.968 125.184-150.944v-206.816h-108.736v193.92c0 45.056-15.744 75.776-55.072 75.776-30.048 0-47.936-20.704-55.808-40.704-2.88-7.2-3.616-17.184-3.616-27.2v-201.76h-108.736l0.64 349.824z" />
<glyph unicode="&#xe606;" d="M359.264 266.688c-3.712 10.016 100.192 102.848 39.552 178.048-14.208 17.568-62.304-84.192-130.592-130.304-37.696-25.408-125.44-79.552-125.44-109.44v-193.632c0-36 139.072-74.080 244.832-74.080 38.656 0 94.816 242.784 94.816 281.344 0 38.656-119.456 37.984-123.168 48.064zM114.464 263.968c-18.624 0-84.896-11.328-84.896-88.32v-137.248c0-76.992 66.304-85.504 84.896-85.504 18.624 0-28.32 16.192-28.32 63.968v180.352c0 50.016 46.944 66.752 28.32 66.752z" />
<glyph unicode="&#xe607;" d="M35.488 193.376l441.024 254.624v-509.248l-220.512 127.328z" />
<glyph unicode="&#xe608;" d="M184.512-43.008c19.072-13.12 42.944-22.016 71.488-21.312 28.544-0.704 52.416 8.192 71.52 21.312v52.928h-142.976l-0.032-52.928zM325.184 38.464c0 104.896 118.88 148.48 109.984 259.84-5.6 70.304-53.184 150.048-179.168 150.048-125.952 0-173.536-79.392-179.136-149.696-8.896-111.392 109.92-155.264 109.92-260.16l138.4-0.032zM193.952 254.784c6.24 4.928 15.232 3.872 20.096-2.368l41.12-52.224 41.088 52.224c4.896 6.24 13.888 7.296 20.096 2.368 6.208-4.832 7.296-13.888 2.4-20l-47.488-60.416c-0.32-0.32-0.64-0.608-0.96-0.96v-77.696c0-7.904-6.4-14.24-14.304-14.24s-14.336 6.336-14.336 14.24v76.128c-0.928 0.736-1.856 1.536-2.624 2.528l-47.456 60.384c-4.896 6.144-3.808 15.2 2.368 20.032z" />
<glyph unicode="&#xe609;" d="M214.4 358.528c0 7.296-5.888 13.184-13.184 13.184h-188.288c-7.296 0-13.184-5.888-13.184-13.184v-189.568c0-7.264 5.92-13.152 13.184-13.152h128.352c0.704-4.64 1.44-9.728 0.64-15.264-4.064-29.312-25.696-48.608-56.48-56.544-8.704-2.144-15.040-7.424-15.040-19.2v-31.936c0-11.744 4.544-21.088 14.848-20.608 65.76 3.36 125.44 65.024 128.96 128.192 0.64 11.36 0.672 21.696 0.128 31.104l0.064 186.976zM511.808 171.648v186.88c0 7.296-5.856 13.184-13.12 13.184h-188.32c-7.264 0-13.152-5.888-13.152-13.184v-189.568c0-7.264 5.92-13.152 13.152-13.152h128.352c0.704-4.64 1.472-9.728 0.672-15.264-4.096-29.312-25.76-48.608-56.512-56.544-8.672-2.144-15.072-7.424-15.072-19.2v-31.936c0-11.744 4.576-21.088 14.88-20.608 65.792 3.36 125.44 65.024 128.928 128.192 0.736 11.424 0.8 21.792 0.192 31.2z" />
<glyph unicode="&#xe60a;" d="M1.056 313.28v-257.12h79.872v257.12h-79.872zM50.336 72.128c-8.8 0-16 7.232-16 16 0 8.8 7.2 16 16 16 8.832 0 16-7.2 16-16 0-8.8-7.136-16-16-16zM431.040 313.28v-257.12h79.904v257.12h-79.904zM462.784 72.832c-8.8 0-15.968 7.168-15.968 16s7.168 15.936 15.968 15.936 15.968-7.104 15.968-15.936-7.168-16-15.968-16zM101.504 142.4c3.008 0 5.984-0.384 8.832-1.248 3.072-0.896 9.216-6.88 32.032-30.048 23.68-24.096 63.328-64.448 73.856-66.4 2.56-0.512 10.080-3.616 19.008-0.992 9.184 2.688 14.624 12.288 14.624 12.288s12.512-13.28 27.904-9.76c18.592 4.32 20.288 18.432 20.288 18.432s14.048-9.952 30.56-2.784c12.928 5.664 12.128 22.208 12.128 22.208s14.24-12.096 29.984-5.12c17.056 7.52 11.328 33.664 5.216 40.672-16.672 19.2-110.304 119.424-122.112 132.032-23.264-14.656-74.848-46.464-84.16-46.464-11.008 0-21.216 6.848-29.632 19.808-8.512 13.184-9.952 24.96-4.16 34.016 2.912 4.576 19.68 19.488 47.68 43.68l1.312 1.12c2.144 1.824 4.096 3.52 5.728 4.96-2.304-0.256-4.864-1.056-7.296-2.368-3.168-1.696-13.184-8.224-22.848-14.528-32.32-21.024-46.528-29.888-50.784-30.368-3.328-0.352-6.656-0.64-9.12-0.768v-118.336c0.288-0.032 0.64-0.032 0.96-0.032zM380.032 140.8c1.184-0.032 4.352-0.16 11.072-0.16 7.872 0 17.312 0.128 22.4 0.224v120.128c-1.664-0.128-3.776-0.288-6.016-0.288-3.328 0-6.208 0.288-8.704 0.864-3.36 0.832-18.944 9.952-56.352 32.192-29.088 17.28-71.424 47.584-83.616 47.584-17.536-3.36-109.024-83.456-111.104-94.144-0.704-3.712 1.952-10.144 6.592-16 4.608-5.792 10.24-9.92 13.76-10.016 3.232 0.32 28.544 15.232 43.68 24.096l0.544 0.32c31.040 18.208 40.64 23.52 44.288 23.52 4.384-0.256 14.752-10.848 69.536-70.944 20.992-22.912 49.504-54.24 53.92-57.376z" />
<glyph unicode="&#xe60b;" d="M422.656 446.208h-137.6c-36.096 0-81.472-5.344-119.52-36.672-28.8-24.704-42.784-58.688-42.784-89.408 0-52 40.096-104.768 110.848-104.768 6.656 0 14.016 0.64 21.44 1.344-3.328-7.968-6.752-14.656-6.752-26.048 0-20.672 10.688-33.344 20.032-45.312-30.016-1.984-86.112-5.376-127.552-30.72-39.424-23.328-51.456-57.376-51.456-81.408 0-49.344 46.784-95.424 143.616-95.424 114.88 0 175.68 63.36 175.68 126.144 0 45.984-26.752 68.672-56.128 93.376l-24.032 18.688c-7.328 5.984-17.312 13.952-17.312 28.672 0 14.656 9.984 24.064 18.656 32.736 28 21.984 56.16 45.28 56.16 94.656 0 50.72-32.096 77.44-47.488 90.112h41.44l42.752 24.032zM363.936 37.888c0-41.344-34.112-72.064-98.24-72.064-71.456 0-117.568 34.048-117.568 81.376 0 47.424 42.752 63.392 57.44 68.704 28.064 9.344 64.128 10.656 70.112 10.656 6.688 0 10.016 0 15.424-0.64 50.784-35.936 72.832-54.048 72.832-88.032zM310.496 252.768c-10.72-10.688-28.8-18.688-45.472-18.688-57.408 0-83.456 74.048-83.456 118.72 0 17.408 3.328 35.392 14.688 49.408 10.656 13.312 29.376 22.016 46.752 22.016 55.424 0 84.16-74.752 84.16-122.784 0.032-12.032-1.344-33.312-16.672-48.672z" />
<glyph unicode="&#xe60c;" d="M470.272 190.848l-240.928-254.528h-187.616l240.928 257.056-240.928 254.624h187.616z" />
<glyph unicode="&#xe60d;" d="M353.184 191.424l-109.28-115.52h-85.12l109.28 116.64-109.28 115.52h85.12z" />
<glyph unicode="&#xe60e;" d="M397.664 358.336h-80.96c-9.568 0-20.256-12.576-20.256-29.408v-58.464h101.216v-83.296h-101.184v-250.176h-95.552v250.144h-86.624v83.328h86.624v49.024c0 70.336 48.8 127.52 115.808 127.52h80.928v-88.672z" />
<glyph unicode="&#xe60f;" d="M278.624 223.52v0l-0.672-31.232zM230.784 161.088v-0.096l-0.704 31.296zM504.032 26.784l-72.8 126.144c-18.72 32.512-49.504 85.632-68.224 118.144l-72.896 126.208c-18.72 32.512-49.408 32.512-68.192 0l-72.832-126.208c-18.784-32.48-49.472-85.664-68.192-118.144l-72.896-126.144c-18.752-32.544-3.424-59.136 34.112-59.136h145.728c37.504 0 98.912 0 136.416 0h145.76c37.44 0 52.832 26.592 34.016 59.136zM278.368 35.36v-23.2h-48.448v46.464h48.416v-23.264zM278.624 223.52l-0.672-31.2-1.984-99.424h-43.68l-1.504 68.096c0 0 0 0.064 0 0.096l-0.704 31.2-2.112 99.424h51.968l-1.312-68.192c0 0 0 0 0 0z" />
<glyph unicode="&#xe610;" d="M255.616 125.44l125.984 285.984h63.904l27.552-371.040c0.64-8.672 4.96-13.632 13.664-13.632h23.296v-53.376h-52.992c-28.576 0-38.496 11.808-40.352 39.68l-20.832 296.608h-1.216l-96.64-219.040c0 0-11.2 6.752-23.392 6.048-10.88-0.64-28.544-23.808-35.136-23.616-7.552 0.192-23.072 7.552-23.072 7.552l-1.44 3.008 40.672 41.824zM248.736 132.992l-118.336 277.6h-63.872l-27.584-371.040c-0.608-8.672-4.96-13.632-13.664-13.632h-23.296v-53.376h52.992c28.576 0 38.496 11.808 40.352 39.744l20.832 296.544h1.216l94.368-214.080 36.992 38.24zM220.64 68.8l9.856-20.576 49.696-0.224 14.56 32.384c0 0-9.632 5.504-17.92 4.992-9.472-0.512-28.512-23.328-36.544-23.552-8.032-0.256-19.648 6.976-19.648 6.976z" />
<glyph unicode="&#xe611;" d="M59.584-36.8h413.536v-24.672h-413.536v24.672zM352.69 312.518l-80.537 62.567 54.714 70.428 80.537-62.567-54.714-70.428zM337.088 292.384l-80.544 62.496-195.392-251.712-22.272-111.84 102.848 49.344z" />
<glyph unicode="&#xe612;" d="M355.232 54.496l-92.8 81.44v-170.976l146.56 91.488v28.288zM510.752 324.32l-152.32 94.688-98.208-81.792 154.912-91.776zM8.672 156.704l145.696-85.376 86.848 72.992-144.896 86.944zM154.272 419.008l-153.024-94.368 96.352-79.2 152.32 93.056zM271.168 144.992l86.656-72.8 146.848 85.376-90.24 73.696zM103.744 84.896v-28.448l147.296-91.488 1.216 170.976-96.032-81.632z" />
<glyph unicode="&#xe613;" d="M268.224 144.608l209.856 303.392h-249.472c9.952-8.224 18.304-19.584 23.52-33.184 14.144-36.64 0.672-76-30.112-87.872-30.816-11.872-67.264 8.224-81.408 44.864-10.976 28.544-5.184 58.656 12.448 76.192h-119.104l205.568-297.12v-183.968h-100.544v-28.704h229.76v28.704h-100.512v177.696z" />
<glyph unicode="&#xe614;" d="M346.336 427.36h-346.144v-414.4h255.52l-16.704 24.672h-214.144v365.024h77.632v-169.696h194.432v169.696h32.448l60.544-56.448v-72.32h24.672v85.216l-68.256 68.256zM261.12 253.6h-40.96v153.12h40.96v-153.12zM414.592 115.296v117.696h-92.096v-117.696h-97.184l143.296-158.624 143.2 158.624z" />
<glyph unicode="&#xe615;" d="M256-28.992l-255.2 441.984h510.432l-127.648-220.96z" />
<glyph unicode="&#xe616;" d="M323.84 210.048v237.952h-135.968v-237.952h-135.968l203.936-271.904 203.936 271.904z" />
<glyph unicode="&#xe617;" d="M381.472 146.816v273.696c0 14.56-10.656 26.336-23.808 26.336-13.088 0-23.744-11.776-23.744-26.336v-273.6c-27.616-14.88-47.424-54.752-47.424-101.728 0-59.68 31.84-108 71.168-108 39.264 0 71.104 48.32 71.104 108-0.064 46.88-19.808 86.72-47.296 101.632zM216.48 434.976c0 6.528-5.312 11.872-11.872 11.872s-11.84-5.344-11.84-11.872v-109.856h-31.040v109.856c0 6.528-5.28 11.872-11.84 11.872s-11.84-5.344-11.84-11.872v-109.856h-31.072v109.856c0 6.528-5.312 11.872-11.872 11.872s-11.84-5.344-11.84-11.872v-152.8c0-0.32 0.128-0.576 0.16-0.896 0-0.608-0.128-1.152-0.128-1.76 0-20.32 17.376-36.864 38.816-36.864h4.832v-279.712c0-14.24 10.304-25.824 23.040-25.824s23.040 11.552 23.040 25.824v279.712h4.608c21.44 0 38.848 16.544 38.848 36.864 0 0.608-0.16 1.152-0.16 1.76 0 0.32 0.16 0.576 0.16 0.896v152.8z" />
<glyph unicode="&#xe618;" d="M124.16 309.216c-15.84 0-53.472 0-53.472 0s-0.096-39.328-0.096-52.896v-266.752c0-29.184 24.032-52.864 53.536-52.864h263.744c29.632 0 53.6 23.68 53.6 52.864v266.784c0 14.944 0 52.864 0 52.864s-39.168 0-53.6 0h-263.712zM413.12 256.352v-266.784c0-14.112-11.328-25.568-25.184-25.568h-263.776c-13.888 0-25.184 11.424-25.184 25.568v266.784c0 7.168 0.128 25.248 0.128 25.248s18.208 0.32 25.056 0.32h263.776c5.344 0 24.704 0.096 24.704 0.096s0.48-17.024 0.48-25.664zM150.144 240.768h28.416v-241.376h-28.416v241.376zM241.312 240.768h28.384v-241.376h-28.384v241.376zM333.536 240.768h28.416v-241.376h-28.416v241.376zM426.048 404.704h-86.080c-9.088 28.448-21.184 42.624-49.856 42.624h-68.16c-28.704 0-40.768-14.176-49.856-42.624h-86.112c-36.448 0-49.856-28.384-49.856-56.8h439.808c-0.032 28.416-13.44 56.8-49.888 56.8z" />
<glyph unicode="&#xe619;" d="M220.256 116.544l95.136-179.872 60.832 37.536-92.032 174.016 122.048 19.392-300.48 280.384 18.496-412.768z" />
<glyph unicode="&#xe61a;" d="M416.832 445.536l-160.672-160.704-163.136 163.168-93.024-93.024 163.136-163.168-161.312-161.312 92.992-93.024 161.344 161.312 158.848-158.848 93.024 92.992-158.848 158.88 160.704 160.704z" />
<glyph unicode="&#xe61b;" d="M177.056 83.104l224.384 232.832c25.888 10.688 92.64-1.856 101.504 47.456l-85.696 82.592c-48.96-10.656-33.952-76.928-43.648-103.168l-224.416-232.928c-42.272-37.792-51.52 35.2-78.464 7.296-78.656-81.536-63.36-168.032-53.632-172.16 4.512-9.6 91.52-21.664 170.048 59.936 26.912 27.904-46.336 34.432-10.080 78.144zM407.264 349.76c0 0-5.376 81.632 3.392 73.12l69.504-66.976c8.832-8.512-72.896-6.144-72.896-6.144z" />
<glyph unicode="&#xe61c;" d="M509.888 302.112l-130.624 110.176v-74.208c-8.32 1.856-18.176 2.848-30.496 2.848-73.888 0.032-125.408-49.728-125.408-121.024l-0.704-22.72v-35.136c0-35.808-21.12-56.352-57.888-56.352-12.64 0-23.328 2.592-32 7.232v79.104l-130.624-110.144 130.624-110.176v71.168c8.96-2.016 19.552-3.136 32.384-3.136 73.824 0 125.344 49.824 125.344 121.088l0.736 32.928v24.928c0 35.808 21.056 56.32 57.888 56.32 11.744 0 21.76-2.304 30.112-6.368v-76.672l130.656 110.144z" />
<glyph unicode="&#xe61d;" d="M511.104 122.464c0-30.784-24.928-55.648-55.68-55.648h-229.536l-50.976-83.488-46.4 83.488h-71.872c-30.72 0-55.68 24.864-55.68 55.648v222.592c0 30.72 24.96 55.616 55.68 55.616h398.784c30.752 0 55.68-24.896 55.68-55.616v-222.592z" />
<glyph unicode="&#xe61e;" d="M511.424 88.672h-510.88c0-36.928 28.224-54.080 50.912-54.208h409.088c27.072 0.096 50.816 21.344 50.88 54.208v0zM414.368 349.536h-304.864v-200c0.032-27.168 23.456-48.672 48.672-48.672h197.792c28.512 0 47.936 24.032 47.808 48.672v16.576c56.512 0.064 97.44 42.464 97.44 91.872 0.032 50.304-40.096 91.584-86.848 91.552zM403.808 204.32v107.616h10.56c38.624 0.032 51.072-36.48 50.88-54.24 0-28.576-21.12-56.032-61.44-53.376z" />
<glyph unicode="&#xe61f;" d="M202.336-24.32l-201.76 255.36 77.216 60.992 126.72-160.352 231.392 276.64 75.52-63.136z" />
<glyph unicode="&#xe620;" d="M19.328 396.096c-18.464-23.008-59.424-132.672 116.064-312.16 184.832-189.184 304.064-148.672 324.64-127.36l-123.616 123.36c-17.28-17.216-39.488-1.856-82.208 32.864-28.192 22.976-60.768 53.856-88.96 88.704-19.776 24.48-37.248 50.176-19.232 68.224l-126.688 126.368zM504.672 0.672c8.064 8.032 7.232 20.256-0.096 27.552v0.128c0 0-96.384 96.096-96.448 96.16-7.616 7.616-19.84 7.424-27.424-0.064l-34.976-35.008 123.936-123.648 34.912 34.88h0.096zM190.56 314.144c8.032 8.096 7.328 20.224 0 27.52v0.16c0 0-99.168 98.88-99.2 98.944-7.68 7.648-19.904 7.392-27.424-0.096l-34.976-34.976 126.656-126.464c0 0 34.976 34.816 34.976 34.88v0.032z" />
<glyph unicode="&#xe621;" d="M451.488 432.736h-393.312c-39.296 0-58.176-16.8-58.176-52.064v-381.216c0-35.328 18.88-48.192 58.176-48.192h393.312c39.36 0 58.208 16.864 58.208 52.064v377.344c0.032 35.264-18.816 52.064-58.208 52.064zM451.488-23.552h-393.312c-26.56 0-30.752 3.136-30.752 26.88v306.176h454.816v-306.176c0-23.776-4.16-26.88-30.752-26.88zM181.6 38.24c0 85.248 117.088 97.44 117.088 153.632 0 23.68-17.952 39.584-43.008 39.584-31.456 0-48.384-30.464-48.384-30.464l-24.672 16.608c0 0 21.664 45.344 75.424 45.344 44 0 75.456-27.424 75.456-68.672 0-78.592-114.016-90.688-114.688-145.216h118.432v-29.12h-153.952c-1.024 6.496-1.696 12.576-1.696 18.304z" />
<glyph unicode="&#xe622;" d="M452.736 432.896h-393.504c-39.36 0-58.24-16.832-58.24-52.096v-381.536c0-35.2 18.912-48.128 58.24-48.128h393.504c39.328 0 58.24 16.8 58.24 52.128v377.504c0.032 35.264-18.88 52.128-58.24 52.128zM452.736-23.68h-393.504c-26.592 0-30.752 3.2-30.752 26.944v306.304h455.040v-306.336c0-23.808-4.192-26.912-30.784-26.912zM122.048 257.504h63.168v-58.144h-63.168v58.144zM224.064 257.536h63.136v-58.176h-63.136v58.176zM324.704 257.504h63.168v-58.144h-63.168v58.144zM122.688 169.12h63.168v-58.176h-63.168v58.176zM224.704 169.12h63.168v-58.176h-63.168v58.176zM325.408 169.12h63.168v-58.176h-63.168v58.176zM123.328 80.672h63.168v-58.176h-63.168v58.176zM225.344 80.672h63.168v-58.112h-63.168v58.112zM326.016 80.672h63.168v-58.176h-63.168v58.176z" />
<glyph unicode="&#xe623;" d="M453.056 448h-253.664l-140.416-139.072-0.416-370.912h394.88zM430.24-38.816h-348.48l0.352 331.136h132.544v132.512h215.232z" />
<glyph unicode="&#xe624;" d="M282.688 448h187.68l-240.992-254.784 240.992-257.216h-187.68l-241.088 254.688z" />
<glyph unicode="&#xe625;" d="M478.912 427.68h-411.456c-16.544 0-29.952-13.376-29.952-29.92v-46.464h-18.88c-8.512 0-15.456-10.656-15.456-23.904 0-13.12 6.944-23.84 15.456-23.84h18.88v-89.984h-18.88c-8.512 0-15.456-10.656-15.456-23.84 0-13.216 6.944-23.872 15.456-23.872h18.88v-89.664h-18.88c-8.512 0-15.456-10.688-15.456-23.872 0-13.088 6.944-23.776 15.456-23.776h18.88v-42.304c0-16.512 13.408-29.984 29.952-29.984h411.424c16.576 0 29.952 13.472 29.952 29.984v411.52c-0.032 16.512-13.408 29.92-29.92 29.92zM129.824 3.488c-18.016 0-33.664 10.080-41.888 25.056h17.984c8.544 0 15.424 10.688 15.424 23.776 0 13.184-6.88 23.872-15.424 23.872h-17.984c8.192 15.040 23.872 25.12 41.888 25.12 26.432 0 47.904-21.984 47.904-48.896 0-26.976-21.44-48.928-47.904-48.928zM129.824 140.8c-18.016 0-33.696 10.080-41.92 25.056h18.016c8.544 0 15.424 10.656 15.424 23.904 0 13.152-6.88 23.84-15.424 23.84h-17.984c8.192 14.944 23.872 25.056 41.888 25.056 26.432 0 47.904-21.888 47.904-48.896 0-27.072-21.44-48.96-47.904-48.96zM129.824 278.496c-18.016 0-33.696 10.112-41.888 25.056h17.984c8.544 0 15.424 10.688 15.424 23.84 0 13.248-6.88 23.904-15.424 23.904h-17.952c8.192 14.944 23.872 25.056 41.888 25.056 26.432 0 47.904-21.952 47.904-48.96 0-27.008-21.472-48.896-47.936-48.896z" />
<glyph unicode="&#xe626;" d="M510.24 246.368h-196.864v199.904h-114.016v-199.904h-197.6v-113.984h197.6v-194.624h114.016v194.624h196.864z" />
<glyph unicode="&#xe627;" d="M510.88 152.576v66.592h-62.912c-4.992 28.992-16.384 55.776-32.704 78.88l44.544 44.512-47.104 47.104-44.512-44.512c-23.136 16.32-49.888 27.648-78.944 32.672v69.056h-66.528v-69.024c-28.992-5.024-55.744-16.352-78.88-32.704l-44.544 44.512-47.072-47.104 44.512-44.512c-16.352-23.136-27.68-49.92-32.704-78.88h-62.912v-66.592h62.912c5.024-28.96 16.352-55.776 32.704-78.88l-44.512-44.512 47.104-47.104 44.512 44.512c23.104-16.32 49.888-27.68 78.88-32.672v-56.768h66.528v56.768c29.056 5.024 55.808 16.384 78.912 32.704l44.512-44.576 47.136 47.136-44.544 44.512c16.352 23.136 27.712 49.92 32.704 78.88h62.912zM255.968 67.904c-65.024 0-117.952 52.928-117.952 117.984s52.928 117.984 117.952 117.984c65.056 0 118.016-52.928 118.016-117.984 0-65.088-52.96-117.984-118.016-117.984z" />
<glyph unicode="&#xe628;" d="M496.448 17.12l-111.328 111.296c20.224 32.192 32.224 70.112 32.224 110.912 0 115.232-93.44 208.672-208.704 208.672-115.232 0-208.64-93.44-208.64-208.672s93.408-208.672 208.64-208.672c40.768 0 78.784 11.904 110.912 32.224l111.328-111.328c9.024-9.088 20.896-13.6 32.768-13.6 11.904 0 23.744 4.512 32.768 13.6 18.144 18.080 18.144 47.456 0.032 65.568zM69.568 239.328c0 76.736 62.368 139.104 139.072 139.104 76.704 0 139.072-62.368 139.072-139.104 0-76.704-62.368-139.040-139.072-139.040-76.704-0.032-139.072 62.336-139.072 139.040z" />
<glyph unicode="&#xe629;" d="M416.256 151.2c-8.352-79.072-77.536-138.72-160.864-138.72-61.056 0-115.584 32.256-143.52 84.416l66.784 66.816h-177.792v-177.792l55.904 55.904c44.448-64.768 118.080-103.296 198.56-103.296 124.352 0 228.8 92.896 237.824 211.552l0.512 6.624h-76.8l-0.608-5.504zM256.608 445.504c-124.32 0-228.8-92.896-237.792-211.552l-0.48-6.624h76.8l0.608 5.536c8.384 79.072 77.536 138.656 160.864 138.656 58.848 0 112.544-30.432 141.152-79.776l-64.416-64.416h177.792v177.824l-58.784-58.784c-44.832 62.24-117.408 99.136-195.744 99.136z" />
<glyph unicode="&#xe62a;" d="M495.296 193.184l-441.28-254.784v509.6l220.608-127.424z" />
<glyph unicode="&#xe62b;" d="M447.84 98.272c-4.8 2.080-10.112 2.176-14.976 0.288-4.864-1.984-8.672-5.696-10.72-10.464-5.824-13.504-12.864-25.984-21.056-37.056-60.64-82.336-176.96-100-259.296-39.328-82.336 60.672-100 176.96-39.328 259.296 53.888 73.12 153.76 96 234.144 54.56l-109.28-109.312 257.408-30.016-25.664 261.76-93.44-93.44c-44.8 26.464-95.776 36.352-147.52 28.512-59.36-9.056-111.584-40.576-147.136-88.896-35.552-48.224-50.144-107.488-41.12-166.88 8.992-59.36 40.512-111.584 88.736-147.2 34.56-25.44 75.392-40.384 118.080-43.2 5.056-0.288 10.080-0.512 15.104-0.512 71.456 0 138.176 33.472 180.864 91.328 9.888 13.504 18.432 28.576 25.44 44.832 4.256 9.984-0.352 21.504-10.24 25.728z" />
<glyph unicode="&#xe62c;" d="M114.048 192.032c0-30.716-24.9-55.616-55.616-55.616s-55.616 24.9-55.616 55.616c0 30.716 24.9 55.616 55.616 55.616 30.716 0 55.616-24.9 55.616-55.616zM313.152 192c0-30.716-24.9-55.616-55.616-55.616s-55.616 24.9-55.616 55.616c0 30.716 24.9 55.616 55.616 55.616 30.716 0 55.616-24.9 55.616-55.616zM509.216 192c0-30.716-24.9-55.616-55.616-55.616s-55.616 24.9-55.616 55.616c0 30.716 24.9 55.616 55.616 55.616 30.716 0 55.616-24.9 55.616-55.616z" />
<glyph unicode="&#xe62d;" d="M189.888 116.608c0 102.016 116.064 118.24 116.064 190.656 0 33.12-29.536 58.4-68.256 58.4-40.064 0-75.264-29.504-75.264-29.504l-49.28 61.184c0.032 0 48.576 50.656 132.288 50.656 79.52 0 153.344-49.248 153.344-132.288 0-116.096-122.4-129.44-122.4-205.44v-27.424h-86.496v33.76zM189.888 21.632h86.528v-83.008h-86.528v83.008z" />
<glyph unicode="&#xe62e;" d="M384.928-37.664c-8.64 6.4-21.12 34.176-26.112 45.44-2.528 5.664-14.912 31.712-14.688 52.576 15.68 22.432 22.176 35.808 26.496 48.192 5.184 14.88 10.88 38.72 12.544 44.16 1.632 5.376 13.184 7.296 21.088 17.856 8.96 12.032 15.2 54.368 15.2 62.4 0 11.52-11.424 22.432-17.824 22.144-2.88-0.16-2.016 4.896-2.016 13.344 0 9.728-0.512 22.88-0.704 27.808-0.384 9.216-4.992 47.744-12.384 72.544-9.376 33.568-58.208 79.2-126.368 79.2-67.968 0-117.248-44.224-126.56-79.232-7.424-24.736-11.424-72.544-11.424-72.544s-0.992-19.744-0.96-31.296c0-3.072 0.352-12.096-0.96-11.744-5.984 1.632-19.264-9.024-19.264-19.584 0-8.672 4.352-50.432 15.808-63.040 8.864-9.824 19.456-12.48 21.12-17.888 1.6-5.44 8.224-30.912 12.48-45.344 8.096-27.392 19.296-45.152 45.472-65.344 15.296-11.808 41.888-17.888 53.44-18.048 11.552-0.16 30.4-0.832 41.088 1.376-32.224-15.136-97.376-15.296-115.904 6.048-2.4 2.752-4.864 5.856-7.392 9.024-3.872-9.088-15.36-53.312-35.712-77.088 1.344-3.104 69.184-25.216 116.64-25.216 38.784-0.032 133.344 13.856 136.896 24.256z" />
<glyph unicode="&#xe62f;" d="M465.248 271.648h-47.936c-4.672 30.304-28.192 62.4-55.264 89.728-28.864 28.032-60.032 50.56-85.632 53.632-1.376 0.192-2.752 0.288-4.416 0.32h-178.24v-143.68h-46.976c-24.96 0-45.248-20.256-45.248-45.248v-200.736h92.16l0.032-56.96h324.352l0.288 56.96h92.128v200.736c0 24.96-20.256 45.248-45.248 45.248zM393.824-7.072h-275.68v66.624h275.648v-66.624zM393.824 230.976c0 0.672 0 6.72 0 6.72h-275.68v153.12h153.952c6.944 0.416 12.832-2.336 17.376-17.92 4.224-14.816 5.248-34.144 5.248-47.52 0.032-9.824-0.448-16.448-0.448-16.448l-0.8-10.848 10.848-0.064c0.064 0 25.056-0.352 49.664-5.888 23.584-5.152 37.888-15.328 39.776-26.848 0.096-0.992 0.096-2.048 0.096-2.976l-0.032-31.328z" />
<glyph unicode="&#xe630;" d="M14.080 155.552l23.52 28.384v0.576l-35.68 8.8 9.6 30.592 34.336-13.888-2.56 37.152h32.608l-2.56-37.152 34.304 13.888 10.24-30.336-36.288-9.056v-0.576l23.808-28.064-25.792-19.008-19.584 31.2h-0.544l-19.584-31.2-25.824 18.688zM144.832 155.552l23.52 28.384v0.576l-35.712 8.8 9.632 30.592 34.304-13.888-2.56 37.152h32.608l-2.56-37.152 34.336 13.888 10.208-30.336-36.256-9.056v-0.576l23.808-28.064-25.824-19.008-19.552 31.2h-0.576l-19.552-31.2-25.824 18.688zM275.552 155.552l23.488 28.384v0.576l-35.712 8.8 9.664 30.592 34.336-13.888-2.56 37.152h32.608l-2.528-37.152 34.304 13.888 10.176-30.336-36.288-9.056v-0.576l23.776-28.064-25.824-19.008-19.552 31.2h-0.544l-19.52-31.2-25.824 18.688zM406.24 155.552l23.552 28.384v0.576l-35.712 8.8 9.632 30.592 34.304-13.888-2.528 37.152h32.64l-2.592-37.152 34.304 13.888 10.24-30.336-36.352-9.056v-0.576l23.84-28.064-25.824-19.008-19.552 31.2h-0.544l-19.552-31.2-25.856 18.688z" />
<glyph unicode="&#xe631;" d="M123.936 192.256c7.2 11.616 16.224 23.072 27.072 34.432 10.848 11.424 23.904 21.632 39.2 30.816 15.328 9.152 30.016 16.736 50.4 22.816 20.352 6.080 43.68 9.696 69.984 10.88v101.056l200.288-155.936-200.288-153.568v111.552c-6.656 0-15.424-0.224-26.4-0.672-10.912-0.384-23.104-1.6-36.544-3.584-13.408-1.952-24.448-4.896-39.232-8.864-14.784-3.904-29.312-9.376-43.584-16.352-14.272-7.072-27.68-14.784-40.256-25.312-12.576-10.496-23.36-23.392-32.448-38.592 4.288 34.208 14.88 63.968 31.808 91.328zM383.456 67.2v-39.072h-345.952v236.672h64.832c1.856 6.72 4.48 12.992 9.152 17.888 6.208 6.496 13.024 12.672 20.288 18.56h-130.656v-309.504h418.752v100.992l-36.416-25.536z" />
<glyph unicode="&#xe632;" d="M511.232 194.432c0 43.68-28.288 80.736-67.552 93.888-3.168 23.552-22.912 56.16-50.208 82.080-27.52 26.112-74.432 57.184-141.728 57.184-117.216 0-176.608-95.968-183.232-139.2-39.296-13.088-67.712-50.208-67.712-93.92 0-54.656 44.32-98.976 98.976-98.976v185.76l0.8-0.064c1.248 26.496 50.848 113.664 151.168 113.664 101.568 0 159.68-88.704 159.68-112.864h0.8v-177.024c-24.864-62.112-87.904-99.744-111.968-103.808-5.024 10.304-15.584 17.504-27.904 17.504-17.184 0-31.072-13.952-31.072-31.136 0-17.12 13.92-31.072 31.072-31.072 12.64 0 23.552 7.552 28.384 18.432 37.408 3.936 109.44 52.128 136.96 123.936 42.336 11.232 73.536 49.76 73.536 95.616z" />
<glyph unicode="&#xe633;" d="M208.576 447.168h94.88l-7.168-362.976h-79.808l-7.904 362.976zM212.16 21.664h88.448v-84.8h-88.448v84.8z" />
<glyph unicode="&#xe634;" d="M398.080 447.808h-284.224c-20.928 0-37.888-16.96-37.888-37.92v-435.84c0-20.896 16.96-37.888 37.888-37.888h284.224c20.96 0 37.952 16.928 37.952 37.888v435.872c-0.032 20.928-16.992 37.888-37.952 37.888zM291.008-27.968c0-5.824-4.736-10.528-10.528-10.528h-48.96c-5.824 0-10.528 4.704-10.528 10.528v41.984c0 5.824 4.672 10.528 10.528 10.528h48.96c5.792 0 10.528-4.704 10.528-10.528v-41.984zM402.496 49.92h-293.056v363.584h293.088l-0.032-363.584z" />
<glyph unicode="&#xe635;" d="M0.992 10.688l278.848-45.92v454.464l-278.848-47.904v-360.64zM89.76 284.128l35.68 4.832-1.856-150.56h60.768v-35.648l-94.56 4.8-0.032 176.576zM307.488 159.328l1.376-1.632-2.88 3.648c0.512-0.672 1.024-1.408 1.504-2.016zM298.624 103.2c14.368-7.968 30.88-12.672 48.512-12.672h11.68l-60.192 76.928v-64.256zM410.368 293.44h-13.248l52.864-68.736c4-4.768 6.816-10.336 8.448-16.672 1.568-4.704 2.368-9.568 2.368-14.432v-7.744c0-18.144-10.752-34.528-28-42.656-5.696-2.72-11.808-4.384-18.048-4.832-1.44-0.128-2.88-0.224-4.384-0.224h-60.512c-1.632 0-3.136 0.096-4.672 0.224l-2.112 0.192 66.56-85.12 1.568-1.76c5.696-6.944 14.016-10.88 22.88-10.88 0.512 0 0.992 0 1.504 0.032 6.496 0.32 12.576 2.688 17.632 6.944 6.048 5.152 9.888 12.448 10.56 20.448 0.672 7.968-7.328 20.992-11.744 26.848 4.512 1.984 8.928 4.48 13.184 7.2 28.672 18.592 45.824 49.856 45.824 83.68v7.648c-0.032 55.040-45.152 99.84-100.672 99.84zM298.624 285.408v-69.568l6.048 7.904 3.872 5.024c0.256 0.288 0.576 0.544 0.832 0.8 4.192 4.544 9.312 8.416 15.264 11.264 5.76 2.688 11.808 4.32 18.176 4.864 1.44 0.064 2.816 0.192 4.32 0.192h60.576c1.568 0 3.136-0.096 4.64-0.224l1.056-0.064-64.992 84.384-1.984 2.432c-6.016 7.264-15.264 11.232-24.384 10.816-6.624-0.288-12.672-2.72-17.728-6.976-6.080-5.152-7.808-13.344-7.264-18.912 0.768-7.904 7.264-20.896 11.744-26.784-2.752-1.216-6.624-3.2-10.176-5.152z" />
<glyph unicode="&#xe636;" d="M2.88 321.824v-278.272l155.68 146.4zM500.256 351.104h0.928c-2.176 1.28-4.736 2.048-7.488 2.048h-475.68c-3.104 0-6.016-0.96-8.416-2.56l245.024-208.672 245.632 209.184zM254.624 107.52l-78.464 63.104-160.864-151.168c0.896-0.16 1.856-0.256 2.72-0.256h475.648c0.16 0 0.352 0.032 0.544 0.032l-161.184 151.392-78.4-63.104zM350.656 189.952l158.176-148.768v282.784z" />
<glyph unicode="&#xe637;" d="M453.088 447.040h-253.728l-140.416-139.104-0.448-370.976h395.008zM430.304-39.872h-348.544l0.352 331.2h132.544v132.512h215.264zM140 251.776h229.568v-23.168h-229.568v23.168zM140 171.488h229.568v-23.2h-229.568v23.2zM140 92.384h229.568v-23.2h-229.568v23.2z" />
<glyph unicode="&#xe638;" d="M379.008 115.296l0.128-155.296h-349.376l0.32 331.936h132.896v132.832h215.744v-49.28l23.264 30.784v41.728h-254.304l-140.8-139.424-0.416-371.84h395.904l-0.192 208.032zM88.096 171.84v-23.232h145.248l0.16 23.232zM88.096 252.288v-23.2h170.208l0.224 23.2zM88.096 92.544v-23.232h135.072l0.16 23.008zM415.584 383.648l-6.976-9.344-23.264-30.784-115.776-153.472-3.168-24.768-3.008-23.264-7.232-56.288 100.928 37.568 28.448 36.128 23.168 29.536 96.832 123.072z" />
<glyph unicode="&#xe639;" d="M345.728 241.6v161.952h27.296v43.136h-234.080v-43.136h24.992v-162.496c-55.616-13.344-93.12-38.336-93.12-67.008 0-0.736 0.192-1.568 0.224-2.272h369.856c0.064 0.704 0.288 1.536 0.288 2.272-0.064 29.12-38.56 54.368-95.456 67.552zM237.376 153.056h38.336l-0.512-195.296c0 0-1.152-20.128-15.936-20.448-20.992-0.384-20.416 20.448-20.416 20.448l-1.472 195.296z" />
<glyph unicode="&#xe63a;" d="M3.008 206.816h89.088v-270.816h-89.088v270.816zM419.904 206.816h89.12v-270.784h-89.12v270.784zM139.52 355.36h89.056v-419.36h-89.056v419.36zM281.088 448.192h89.088v-512.192h-89.088v512.192z" />
<glyph unicode="&#xe63b;" d="M359.296 301.408c0-20.978-17.006-37.984-37.984-37.984s-37.984 17.006-37.984 37.984c0 20.978 17.006 37.984 37.984 37.984 20.978 0 37.984-17.006 37.984-37.984zM364.928 206.816l-56-55.936-111.936 111.968-111.968-111.968v-111.968h335.808v111.968zM505.568-61.92h-499.104v509.92h499.104v-509.92zM29.44-38.88h453.088v463.872h-453.088v-463.872z" />
<glyph unicode="&#xe63c;" d="M292.128 448h-42.464c0-118.976 0-360.768 0-360.768-65.952 30.016-143.232-10.144-156.128-69.792-4.096-19.36 4.544-40.384 12.576-49.984 45.12-53.888 143.552-28.768 188.832 29.184 20.096 25.728 18.4 48.16 18.4 103.296 0 74.784 0 146.368 0 220.736 27.808-20.64 59.232-39.904 70.432-76.832 7.040-22.944-2.272-61.12-9.696-80.608-2.208-5.824-8.416-10.784-5.568-16.64 19.488-14.464 29.12 16.32 34.688 29.152 6.080 13.952 11.872 31.2 13.92 43.072 21.824 127.36-113.568 132.192-124.992 229.184z" />
<glyph unicode="&#xe63d;" d="M483.84 353.6c-4.672 29.44-20.48 55.36-44.672 72.896-19.232 14.080-42.016 21.504-65.856 21.504-35.552 0-69.44-17.12-90.4-45.824l-239.136-328.064c-13.888-18.848-19.52-41.888-15.968-64.96 3.552-23.104 15.968-43.392 34.88-57.12 15.104-11.072 32.928-16.832 51.488-16.832 27.904 0 54.4 13.408 70.848 35.968l186.464 255.744c9.984 13.696 14.016 30.464 11.328 47.136-2.656 16.544-11.552 31.040-25.12 40.768-10.976 8-23.776 12.256-37.248 12.256-20.064 0-39.040-9.664-50.88-25.92l-123.424-169.504 23.040-16.8 123.456 169.472c6.528 8.896 17.024 14.208 28.128 14.208 7.296 0 14.272-2.24 20.192-6.464 7.392-5.344 12.256-13.344 13.728-22.496 1.472-9.248-0.736-18.496-6.24-25.984l-187.232-257.024c-11.136-14.368-28.576-22.976-46.848-22.976-12.512 0-24.48 3.904-34.592 11.296-26.208 19.424-31.904 56.48-12.64 82.464l238.912 328.032c15.68 21.44 40.96 34.24 67.648 34.24 17.728 0 34.624-5.472 48.896-15.84 37.12-27.136 45.312-79.488 18.24-116.704l-175.008-239.968 22.944-16.704 174.88 239.872c17.696 24.224 24.864 53.792 20.192 83.328z" />
<glyph unicode="&#xe63e;" d="M98.848 384.32c-108.928-81.44-132.16-235.584-51.52-345.408 80.608-109.888 234.624-133.952 344.928-54.496l-293.408 399.904zM133.632 402.592c98.112 70.56 229.6 56.48 305.312-46.656l-176.16-129.312-129.152 175.968zM469.632 320.576c74.72-103.616 48.544-233.984-49.088-305.632l-128.64 175.264 177.728 130.368z" />
<glyph unicode="&#xe63f;" d="M510.976-18.624h-509.952v254.944h23.168v-231.744h463.616v231.744h23.168zM302.368 240.352v162.272h-92.736v-162.272h-92.704l139.072-185.408 139.104 185.408z" />
<glyph unicode="&#xe640;" d="M484-63.936c0 0 0 31.072 0 41.92v428.032c0 10.848-0.16 42.080-0.16 42.080s-30.944 0-43.712 0h-412.128v-470.112c-0.032-12.128 0-41.92 0-41.92zM97.024-64.096h317.792zM458.944 248.384h-44.064v61.28h44.064v-61.28zM53.088 135.488h43.936v-61.28h-43.936v61.28zM389.76 391.2v-188.32h-267.68v188.32h267.68zM122.080 177.792h267.68v-186.464h-267.68v186.464zM414.88 334.784v56.416h44.064v-56.416h-44.064zM97.024 391.2v-57.088h-43.936v57.088h43.936zM97.024 308.992v-61.312h-43.936v61.312h43.936zM97.024 222.592v-62.016h-43.936v62.016h43.936zM97.024 49.12v-57.824h-43.936v57.824h43.936zM414.88-8.672v58.496h44.064v-58.496h-44.064zM414.88 74.912v61.312h44.064v-61.312h-44.064zM414.88 161.248v62.048h44.064v-62.016h-44.064z" />
<glyph unicode="&#xe641;" d="M493.376 53.408c-26.112 18.624-84.128 31.2-139.136 38.368-38.016 4.992-74.688 7.36-98.272 7.36-24.8 0-61.344-2.144-98.88-6.88-55.904-7.008-114.016-19.52-139.456-38.88-8.384-6.368-13.28-13.472-13.28-21.376 0-17.536 0-18.784 2.272-21.184 0.352-0.288 1.984-0.896 8.96-0.896 2.112 0 4.448 0.064 6.976 0.096 3.328 0.064 6.976 0.16 11.136 0.16l452.128 0.032c8.064 0 17.984 0 19.424 2.24 2.432 3.744 2.432 1.504 2.432 19.52 0 7.872-5.312 15.008-14.304 21.44zM74.144 225.408c12.224 0 37.664 21.856 37.728 48.768-0.032 26.976-10.56 48.768-37.728 48.832-27.168-0.032-37.728-21.824-37.76-48.832 0.064-26.912 25.536-48.768 37.76-48.768zM147.296 128.032c0.512 15.456 0.512 43.904 0.512 54.816 0 21.728-26.048 24.832-47.264 32.288-8.832-7.68-18.56-12.352-26.4-12.352-7.872 0-17.632 4.672-26.464 12.352-22.176-7.008-47.232-9.856-47.232-32.288 0-21.824 0.032-75.136 4.192-95.776 30.208 22.976 90.56 34.88 142.656 40.96zM255.040 136.896c0.864 0 30.272-0.704 68.832-4.512 4.864 19.424 4.864 78.496 4.864 101.408 0 21.792-26.048 24.832-47.296 32.32-8.8-7.648-18.56-12.32-26.4-12.32-7.872 0-17.6 4.64-26.4 12.352-22.24-6.976-47.264-9.856-47.264-32.32 0-22.688 0-81.12 4.704-100.832 38.592 3.552 68.096 3.904 68.96 3.904zM255.040 276.448c12.224 0 37.632 21.856 37.696 48.736 0 26.944-10.528 48.8-37.696 48.864-27.136-0.064-37.696-21.856-37.728-48.864 0.064-26.912 25.504-48.736 37.728-48.736zM437.952 225.408c12.192 0 37.632 21.856 37.696 48.768-0.064 26.976-10.56 48.768-37.696 48.832-27.264-0.032-37.76-21.824-37.76-48.832 0-26.912 25.44-48.768 37.76-48.768zM507.264 86.656c4.32 20.576 4.32 74.208 4.32 96.128 0 21.792-26.048 24.832-47.328 32.352-8.736-7.68-18.56-12.384-26.304-12.384-7.936 0-17.696 4.672-26.496 12.384-22.176-7.008-47.264-9.92-47.264-32.352 0-11.040 0-39.744 0.576-55.456 51.808-6.368 111.968-18.336 142.496-40.672z" />
<glyph unicode="&#xe642;" d="M187.936 175.84v-238.176h136.128v238.176h136.064l-204.128 272.16-204.128-272.16z" />
<glyph unicode="&#xe643;" d="M510.752 350.016c-18.752-8.352-38.912-13.952-60.032-16.48 21.6 12.928 38.144 33.44 45.952 57.824-20.224-12-42.56-20.672-66.336-25.376-19.072 20.32-46.24 33.024-76.32 33.024-57.728 0-104.544-46.784-104.544-104.544 0-8.192 0.928-16.16 2.72-23.84-86.88 4.416-163.936 46.048-215.456 109.28-9.024-15.424-14.176-33.376-14.176-52.576 0-36.224 18.432-68.224 46.496-86.976-17.12 0.544-33.248 5.216-47.328 13.056-0.032-0.416-0.032-0.864-0.032-1.28 0-50.656 36.032-92.896 83.84-102.496-8.768-2.4-17.984-3.68-27.52-3.68-6.72 0-13.248 0.672-19.648 1.888 13.312-41.472 51.936-71.744 97.664-72.608-35.808-28.064-80.832-44.704-129.824-44.704-8.448 0-16.768 0.48-24.928 1.472 46.24-29.696 101.184-47.008 160.192-47.008 192.32 0 297.44 159.264 297.44 297.408 0 4.544-0.096 9.056-0.32 13.568 20.416 14.688 38.144 33.088 52.16 54.048z" />
<glyph unicode="&#xe644;" d="M284.832 380.672v67.328h-60.512v-67.744c-94.4-15.2-166.656-96.832-166.656-195.584 0-98.72 72.256-180.384 166.656-195.584v-51.008h60.512v50.56c95.872 14.016 169.504 96.288 169.504 196.032s-73.664 182.016-169.504 196zM240.608 92.48l-82.432 104.256 31.552 24.896 51.744-65.472 94.496 112.992 30.848-25.792-126.208-150.88z" />
<glyph unicode="&#xe645;" d="M254.56 448c-140.576 0-254.56-113.984-254.56-254.56 0-140.608 113.952-254.592 254.56-254.592 140.608 0 254.56 113.984 254.56 254.592 0 140.576-113.952 254.56-254.56 254.56zM359.584 54.848c-5.152-5.184-11.936-7.744-18.688-7.744-6.816 0-13.6 2.56-18.752 7.744l-107.808 107.808v199.328c0 14.624 11.808 26.464 26.496 26.464 14.656 0 26.496-11.84 26.496-26.464v-177.408l92.256-92.288c10.4-10.336 10.4-27.136 0-37.44z" />
<glyph unicode="&#xe646;" d="M276.352 214.304c12.352 7.232 20.768 20.48 20.768 35.776 0 22.912-18.624 41.536-41.536 41.536-22.912 0-41.504-18.624-41.504-41.536 0-15.296 8.416-28.544 20.736-35.776v-130.336c0-41.504-41.472-145.312-41.472-145.312h124.576c0 0-41.504 103.808-41.504 145.312l-0.064 130.336zM122.528 100.544c-57.088 32.864-92.576 93.536-92.576 158.272 0 65.12 35.776 126.016 93.408 158.816 7.136 4.032 9.6 13.152 5.568 20.288-3.936 6.816-13.408 9.44-20.288 5.568-66.88-38.080-108.448-108.864-108.448-184.672 0-75.36 41.184-145.856 107.456-184.032 2.304-1.344 4.832-2.016 7.424-2.016 5.344 0 10.24 2.88 12.864 7.456 4.128 7.104 1.696 16.224-5.408 20.32zM164.576 360.064c-36.832-20.992-59.712-59.936-59.712-101.728 0-41.472 22.656-80.32 59.168-101.408 2.208-1.28 4.8-1.952 7.392-1.952 5.312 0 10.24 2.816 12.896 7.456 4.128 7.072 1.632 16.192-5.44 20.288-27.296 15.776-44.256 44.736-44.256 75.616 0 31.104 17.12 60.16 44.672 75.872 3.424 1.952 5.888 5.152 6.976 8.96 1.024 3.84 0.48 7.872-1.44 11.296-3.936 6.88-13.344 9.504-20.256 5.6zM403.36 443.488c-6.912 3.904-16.416 1.28-20.288-5.568-4.064-7.104-1.568-16.224 5.6-20.288 57.6-32.832 93.376-93.632 93.376-158.784 0-64.736-35.456-125.376-92.576-158.304-7.104-4.096-9.568-13.216-5.472-20.32 2.624-4.608 7.584-7.456 12.896-7.456 2.592 0 5.12 0.672 7.392 2.016 66.24 38.176 107.456 108.704 107.456 184.064 0.032 75.808-41.472 146.56-108.384 184.64zM347.424 360.064c-6.912 3.936-16.384 1.28-20.288-5.6-4.064-7.104-1.568-16.192 5.568-20.256 27.552-15.712 44.672-44.768 44.672-75.872 0-30.88-16.928-59.872-44.256-75.584-7.104-4.096-9.536-13.248-5.44-20.352 2.624-4.576 7.552-7.392 12.864-7.392 2.592 0 5.152 0.672 7.392 1.952 36.512 21.088 59.168 59.936 59.168 101.408 0.032 41.76-22.816 80.704-59.68 101.696z" />
<glyph unicode="&#xe647;" d="M494.752 341.696c-320.96-128.512-190.944 217.28-439.904 35.232l-52.032-18.72 103.104-405.344h56.768l-50.464 198.496c222.080 186.208 132.128-202.816 394.848 178.88 6.112 8.896-2.080 15.552-12.32 11.456z" />
<glyph unicode="&#xe648;" d="M400.928 448h-289.856c-23.456 0-42.624-19.168-42.624-42.656v-426.304c0-23.424 19.2-42.592 42.656-42.592h289.856c23.456 0 42.624 19.2 42.624 42.592v426.304c0 23.488-19.168 42.656-42.656 42.656zM256.032-48.928c-7.136 0-12.864 5.76-12.864 12.832 0 7.136 5.728 12.832 12.864 12.832 7.040 0 12.832-5.728 12.832-12.832 0-7.104-5.76-12.832-12.832-12.832zM410.592-10.208h-309.152v420.832h309.152v-420.832z" />
<glyph unicode="&#xe649;" d="M256 434.112l78.688-159.392 175.904-25.536-127.264-124.064 30.016-175.2-157.344 82.72-157.312-82.72 30.016 175.2-127.264 124.064 175.872 25.536z" />
<glyph unicode="&#xe64a;" d="M288.736 71.744c0 40.288 30.528 62.56 80.384 95.52 60.864 40.384 136.672 90.592 136.672 209.824 0 10.72-8.768 19.424-19.616 19.424h-95.232c-13.44 24.864-53.536 51.488-134.944 51.488s-121.472-26.624-134.976-51.456h-95.2c-10.848 0-19.616-8.704-19.616-19.424 0-119.264 75.808-169.44 136.736-209.824 49.824-32.96 80.32-55.264 80.32-95.52v-36.384c-52.352-5.824-90.784-25.152-90.784-48.192 0-27.584 55.328-49.952 123.52-49.952 68.224 0 123.488 22.368 123.488 49.952 0 23.072-38.432 42.368-90.752 48.192v36.352zM365.824 212.032c15.776 33.344 28.256 78.496 30.272 145.632h69.6c-6.624-74.912-51.68-112.8-99.872-145.632zM256 413.952c75.84 0.032 105.472-30.944 105.408-42.432 0-11.584-29.568-42.592-105.408-42.624-75.872 0.032-105.408 31.008-105.408 42.624-0.032 11.456 29.536 42.464 105.408 42.432zM46.304 357.664h69.632c2.016-67.136 14.496-112.32 30.24-145.632-48.224 32.832-93.248 70.72-99.872 145.632z" />
<glyph unicode="&#xe64b;" d="M492.288 139.712c3.616 16.576 5.504 33.728 5.504 51.36 0 132.032-107.040 239.136-239.104 239.136-13.984 0-27.648-1.216-40.896-3.52-21.44 13.472-46.752 21.312-73.792 21.312-76.64 0-138.72-62.080-138.72-138.688 0-25.568 6.912-49.6 19.040-70.144-3.104-15.616-4.864-31.648-4.864-48.128 0-132.032 107.104-239.136 239.2-239.136 14.944 0 29.568 1.376 43.776 4 19.488-10.496 41.824-16.48 65.6-16.48 76.576 0 138.688 62.048 138.688 138.656 0 22.208-5.216 43.072-14.432 61.632zM382.368 76.032c-11.232-15.904-27.808-28.48-49.152-37.344-21.152-8.8-46.496-13.184-75.264-13.184-34.496 0-63.488 6.048-86.208 18.080v0c-16.256 8.736-29.664 20.672-39.872 35.36-10.24 14.784-15.552 29.6-15.552 43.936 0 9.088 3.552 17.12 10.4 23.52 6.784 6.368 15.584 9.632 25.888 9.632 8.48 0 15.904-2.528 21.888-7.616 5.728-4.8 10.56-11.936 14.4-20.96v0l0.032-0.032v0.032c4.128-9.632 8.736-17.76 13.568-24.096 4.544-6.016 11.136-11.136 19.552-15.104 8.448-4 19.936-6.048 34.208-6.048 19.584 0 35.552 4.192 47.424 12.32 5.856 4 10.080 8.352 12.928 13.056 2.816 4.768 4.192 9.952 4.192 15.68 0 9.216-2.88 16.16-8.8 21.792-6.336 5.92-14.752 10.56-24.992 13.76-10.848 3.392-25.568 7.040-43.808 10.848-24.832 5.344-45.984 11.648-62.912 18.848-17.248 7.328-31.296 17.632-41.568 30.464-10.496 13.056-15.776 29.536-15.776 48.736 0 18.304 5.568 34.944 16.544 49.216 10.88 14.144 26.688 25.152 47.008 32.64 20.032 7.424 43.776 11.168 70.624 11.168 21.44 0 40.352-2.496 56.224-7.392 15.872-4.928 29.248-11.648 39.84-19.936 10.688-8.288 18.624-17.184 23.648-26.528 5.024-9.376 7.584-18.752 7.584-27.904 0.064-8.928-3.456-17.056-10.176-24.032-6.752-7.008-15.392-10.624-25.44-10.624-9.056 0-16.384 2.176-21.472 6.752-4.672 4.096-9.376 10.368-14.56 19.328v0 0c-5.952 11.2-12.992 20-21.088 26.144-7.648 5.824-20.864 8.96-39.168 8.96-17.024 0-30.656-3.456-40.672-9.984-4.928-3.2-8.512-6.624-10.816-10.208-2.368-3.648-3.488-7.456-3.488-11.712 0-5.152 1.44-9.344 4.416-13.056 3.296-4 7.936-7.52 13.856-10.496 6.208-3.136 12.64-5.6 19.008-7.36 6.624-1.856 17.792-4.576 33.024-8.096v0c19.392-4.192 37.216-8.864 53.024-13.888 15.968-5.12 29.856-11.424 41.216-18.848 11.584-7.552 20.832-17.312 27.328-28.896 6.624-11.712 9.92-26.080 9.92-42.752 0-20.032-5.696-38.272-16.96-54.176zM188.896 127.424v0l0.032-0.032zM267.872 234.528l-0.032 0.032-0.256-1.28zM172.96 45.92v0 0zM314.976 271.616v0l-1.088-0.64 1.12 0.608z" />
<glyph unicode="&#xe64c;" d="M475.168 228.576h-438.304c-20.192 0-36.544-16.384-36.544-36.576 0-20.16 16.384-36.512 36.544-36.512h438.304c20.192 0 36.544 16.352 36.544 36.512-0.032 20.16-16.384 36.576-36.544 36.576zM36.864 301.6h438.304c20.192 0 36.544 16.32 36.544 36.512s-16.352 36.544-36.544 36.544h-438.304c-20.16 0-36.544-16.352-36.544-36.544 0.032-20.192 16.352-36.512 36.544-36.512zM475.168 82.464h-438.304c-20.16 0-36.544-16.384-36.544-36.576s16.384-36.544 36.544-36.544h438.304c20.192 0 36.544 16.352 36.544 36.544-0.032 20.16-16.384 36.576-36.544 36.576z" />
<glyph unicode="&#xe64d;" d="M430.144 134.048c-15.328-13.408-32.192-21.504-45.824-21.504-13.696 0-30.528 8.096-45.888 21.504-2.752-0.864-5.536-1.728-8.32-2.56 8.384-11.776 13.664-26.432 13.664-44.96 0-34.944 0-57.984-3.68-75.296-0.288-1.344-0.64-2.528-0.992-3.776h154.208c18.944 0 18.944 18.336 18.944 70.432 0 37.824-45.248 43.104-82.112 56.16zM384.352 134.688c21.248 0 65.376 37.952 65.536 84.672-0.096 46.848-18.336 84.672-65.536 84.8-47.168-0.128-65.504-37.984-65.568-84.8 0.128-46.752 44.384-84.672 65.568-84.672zM84.416 235.84c0.736-1.92 1.408-3.84 2.208-5.696 1.28-2.848 2.656-5.568 4.096-8.256 0.16-0.32 0.32-0.64 0.48-0.96 1.344-2.4 2.784-4.704 4.256-7.040 0.352-0.512 0.672-1.12 0.96-1.664 3.712-5.568 7.776-10.816 12.064-15.584 0 0 0-0.032 0.032-0.032 1.632-1.856 3.296-3.52 4.96-5.248 0.544-0.512 1.024-1.088 1.568-1.6 2.176-2.080 4.352-4.032 6.56-5.92 0.064-0.032 0.128-0.128 0.224-0.16 2.144-1.824 4.32-3.52 6.464-5.024 0.096-0.064 0.192-0.192 0.32-0.256 6.528-4.704 12.928-8.192 18.816-10.336 0.256-0.064 0.512-0.224 0.736-0.288 1.28-0.48 2.496-0.736 3.68-1.024 0.704-0.192 1.504-0.48 2.176-0.608 0.928-0.192 1.728-0.192 2.624-0.256 0.864-0.096 1.824-0.288 2.656-0.288 0 0 0 0 0.032 0 26.496 0 81.536 47.328 81.696 105.568-0.128 58.432-22.848 105.664-81.696 105.792-58.88-0.16-81.696-47.328-81.76-105.76 0.032-10.944 1.984-21.472 5.312-31.36 0.448-1.344 1.024-2.688 1.536-4zM303.424 129.376c-19.904 17.824-55.872 24.448-87.008 35.456-19.072-16.704-40.16-26.784-57.152-26.784-17.024 0-38.080 10.048-57.216 26.752-48.096-15.136-102.304-21.376-102.304-69.952 0-64.96 0-87.808 23.584-87.84l271.84 0.032c8.064 0 13.312 2.688 16.768 8.768 6.784 11.712 6.848 36.16 6.848 79.040 0 15.168-5.92 26.080-15.36 34.528z" />
<glyph unicode="&#xe64e;" d="M256 446.24c-140.416 0-254.24-113.824-254.24-254.24 0-140.448 113.824-254.24 254.24-254.24 140.448 0 254.24 113.824 254.24 254.24 0 140.416-113.792 254.24-254.24 254.24zM380.576 109.216l-48.192-48.192-82.304 82.304-83.584-83.552-48.192 48.192 83.552 83.584-84.512 84.48 48.192 48.224 84.544-84.544 83.232 83.232 48.192-48.192-83.296-83.232 82.368-82.304z" />
<glyph unicode="&#xe64f;" d="M404.736 192c0 36.192-15.616 149.312-85.952 182.048 0.448 3.072 0.992 6.080 0.992 9.216 0.032 35.232-28.512 63.776-63.776 63.776-35.232 0-63.776-28.576-63.776-63.776 0-3.136 0.512-6.144 0.896-9.216-70.304-32.736-85.888-145.856-85.888-182.048 0-63.776-63.776-148.768-63.776-148.768v-42.528h425.12v42.528c0 0-63.84 84.992-63.84 148.768zM256.352-63.072c25.696 0 47.136 18.24 52 42.496h-104.064c4.896-24.224 26.336-42.496 52.064-42.496z" />
<glyph unicode="&#xe650;" d="M157.44 1.664l-157.44 161.76 36.704 35.744 121.728-125.088 316.736 308.256 35.744-36.704z" />
<glyph unicode="&#xe651;" d="M445.504 197.696l-3.552 20.576c-4.8 27.84-15.488 53.632-31.744 76.64l-12.128 17.088 46.176 46.144-16.672 16.64-46.112-46.144-17.088 12.064c-23.104 16.288-48.864 26.976-76.64 31.776l-20.64 3.552v71.968h-23.488v-71.904l-20.576-3.584c-27.84-4.832-53.632-15.52-76.64-31.776l-17.088-12.064-46.208 46.144-16.64-16.672 46.208-46.144-12.096-17.12c-16.256-22.944-26.976-48.736-31.776-76.608l-3.552-20.576h-65.248v-23.52h65.248l3.552-20.64c4.8-27.872 15.52-53.632 31.776-76.608l12.096-17.12-46.208-46.144 16.672-16.672 46.176 46.112 17.088-12.064c23.072-16.288 48.832-26.912 76.64-31.712l20.608-3.552v-58.496h23.456v58.496l20.672 3.552c27.776 4.8 53.568 15.488 76.672 31.712l17.056 12.096 46.112-46.144 16.672 16.672-46.144 46.144 12.096 17.088c16.256 23.072 26.944 48.832 31.744 76.64l3.52 20.64h65.28v23.52h-65.28zM255.36 25.152c-88.288 0-159.872 71.552-159.872 159.84 0 88.32 71.584 159.904 159.872 159.904 88.32 0 159.872-71.584 159.872-159.904 0.032-88.288-71.552-159.84-159.872-159.84z" />
<glyph unicode="&#xe652;" d="M496.736-59.648c-3.168 0-6.304 1.216-8.704 3.616l-163.296 165.824c-4.768 4.8-4.672 12.576 0.128 17.312 4.8 4.704 12.608 4.704 17.312-0.128l163.296-165.792c4.736-4.8 4.672-12.608-0.128-17.344-2.368-2.336-5.472-3.488-8.608-3.488zM199.296 51.008c-108.256 0-196.32 88.064-196.32 196.32s88.064 196.32 196.32 196.32c108.256 0 196.288-88.064 196.288-196.32s-88.032-196.32-196.288-196.32zM199.296 419.136c-94.752 0-171.808-77.088-171.808-171.84s77.056-171.808 171.808-171.808c94.72 0 171.808 77.056 171.808 171.808s-77.088 171.84-171.808 171.84z" />
<glyph unicode="&#xe653;" d="M252.832 390.208c-11.424 0-23.072-0.896-34.592-2.624-59.552-9.024-111.968-40.672-147.648-89.152-35.648-48.352-50.272-107.84-41.28-167.392 9.056-59.584 40.672-112.064 89.056-147.712 34.656-25.472 75.616-40.512 118.464-43.328 77.664-4.864 150.752 28.832 196.64 91.2 9.952 13.408 18.56 28.608 25.568 44.928 1.344 3.136 1.344 6.56 0.128 9.728-1.248 3.168-3.68 5.632-6.784 6.976-3.136 1.344-6.56 1.408-9.696 0.16-3.2-1.248-5.664-3.68-7.008-6.816-6.208-14.464-13.888-27.936-22.72-39.936-37.472-50.912-97.76-81.28-161.216-81.28-42.88 0-83.808 13.44-118.336 38.88-88.736 65.408-107.744 190.784-42.4 279.552 37.344 50.656 97.568 80.96 161.088 80.96 31.648 0 63.232-7.68 91.36-22.144l9.184-4.736-109.536-109.632 242.144-28.224-24.256 246.144-89.696-89.696-5.088 2.976c-35.008 20.704-73.216 31.168-113.376 31.168z" />
<glyph unicode="&#xe654;" d="M394.976-59.296c-53.76 0-142.272 24.928-258.752 144.256-167.264 171.104-134.176 275.68-118.464 305.856v0l6.24 10.272 33.664 33.632c11.456 11.424 31.264 11.456 42.688 0.032 1.568-1.568 95.424-95.168 95.424-95.168l3.424-4.16c8.256-11.744 7.104-28.16-3.36-38.656l-0.32 0.224c-3.584-4.256-10.944-11.584-25.472-26.048l-7.136-7.36c-8.448-8.48-3.040-22.592 19.328-50.176 23.392-28.992 53.216-58.72 83.84-83.744 24.128-19.552 44.96-35.776 56.384-35.776 1.888 0 4.224 0.416 7.328 3.456l33.568 33.568c11.552 11.488 31.296 11.424 42.688 0.064l-0.16-0.128c5.568-5.248 24-23.616 92.928-92.384l3.392-4.096c8.48-11.904 7.36-28.096-3.296-38.784 0 0-16.736-16.672-33.792-33.664l-9.472-6.784c-12.512-7.712-33.12-14.432-60.672-14.432zM42.272 386.688l-0.736-1.056c-0.736-0.928-71.488-97.664 111.2-284.608 116.736-119.36 201.856-137.248 242.24-137.248 28.832 0 47.744 8.768 53.504 14.656l8.576 7.968c6.912 6.816 16.448 16.352 21.568 21.536l4.896 5.024c2.144 3.168 1.216 6.944-1.024 9.088l-3.328 3.456c-15.392 15.328-78.304 78.080-88.064 87.808l-1.312 1.344c-2.752 2.688-7.424 2.592-10.144-0.096l-33.536-33.568c-6.752-6.784-14.752-10.24-23.584-10.24-19.136 0-40.48 16.288-70.944 41.024-31.904 26.016-62.912 56.896-87.328 87.136-13.6 16.832-37.728 46.656-24.64 71.616v0l6.848 9.504c2.496 2.496 22.528 22.464 30.080 30.016l2.912 2.976c3.2 3.2 2.496 7.68 0.064 10.112l-3.424 3.52c-73.312 73.088-88.608 88.32-92 91.84l-0.064-0.032c-4.192 4.16-7.744 2.24-10.080-0.096l-31.68-31.68z" />
<glyph unicode="&#xe655;" d="M485.12 364.768c13.312 0 24.128-10.816 24.128-24.128v-297.312c0-13.312-10.816-24.16-24.128-24.16h-458.24c-13.312 0-24.128 10.848-24.128 24.16v297.312c0 13.312 10.816 24.128 24.128 24.128h458.24zM256 149.504l1.76 1.504 228.576 194.784h-460.448l8.352-7.456 221.76-188.832zM490.24 53.28v271.808l-7.712-6.592-144.288-122.24 148.736-139.872zM21.728 53.44l10.080 9.28 141.952 133.536-2.304 1.92-149.728 126.752zM256 125.6l-70.592 56.704-1.696-1.6-151.744-142.528h448.256l-7.328 6.624-146.4 137.504-1.824-1.44-68.672-55.264z" />
<glyph unicode="&#xe656;" d="M178.784-21.12l-49.632 89.248h-61.952c-34.784 0-63.104 28.352-63.104 63.072v210.816c0 34.784 28.32 63.104 63.104 63.104h377.728c34.816 0 63.136-28.288 63.136-63.104v-210.816c0-34.72-28.32-63.072-63.136-63.072h-211.584l-54.56-89.248zM67.2 384.352c-23.328 0-42.336-18.976-42.336-42.304v-210.848c0-23.296 18.976-42.272 42.336-42.272h74.176l38.272-68.8 42.016 68.8h223.264c23.328 0 42.368 19.008 42.368 42.272v210.816c0 23.328-19.040 42.304-42.368 42.304h-377.728z" />
<glyph unicode="&#xe657;" d="M456.256 433.856h-400.16c-38.272 0-56.096-15.872-56.096-49.92v-387.872c0-32.608 16.256-45.92 56.096-45.92h400.128c38.272 0 56.096 15.872 56.096 49.92v383.872c0.032 34.048-17.792 49.92-56.064 49.92zM490.592 0.064c0-26.848-6.912-30.464-34.336-30.464h-400.16c-27.456 0-34.368 3.616-34.368 30.464v314.592h468.832v-314.592zM123.072 255.52h58.048v-52.992h-58.048v52.992zM226.752 255.552h58.048v-52.992h-58.048v52.992zM329.152 255.52h58.016v-52.992h-58.016v52.992zM123.744 165.6h58.016v-52.96h-58.016v52.96zM227.424 165.6h58.048v-52.96h-58.048v52.96zM329.824 165.6h58.016v-52.96h-58.016v52.96zM124.384 75.712h58.048v-52.96h-58.048v52.96zM228.096 75.712h58.048v-52.96h-58.048v52.96zM330.464 75.712h58.080v-52.96h-58.080v52.96z" />
<glyph unicode="&#xe658;" d="M383.744-63.392l-272.064 255.36 272.064 255.424 16.576-17.6-253.344-237.824 253.344-237.76z" />
<glyph unicode="&#xe659;" d="M243.328 448h23.456v-510.080h-23.456v510.080zM0 204.672h510.080v-23.456h-510.080v23.456z" />
<glyph unicode="&#xe65a;" d="M509.76 193.152c0-140.768-114.112-254.848-254.88-254.848-140.768-0.032-254.88 114.080-254.88 254.848s114.112 254.848 254.848 254.848c140.768 0 254.912-114.080 254.912-254.848zM122.464 205.632c1.184 35.712 7.36 69.856 17.728 101.408l-85.152 0.096c-17.28-30.176-27.904-64.704-29.856-101.504h97.28zM242.432 307.136h-75.872c-11.296-31.648-17.952-65.728-19.2-101.504h95.072v101.504zM242.432 422.848c-26.784-23.968-49.408-54.88-65.76-90.592h65.728v90.592zM71.52 332.256h78.080c13.152 31.392 31.2 60.512 52.032 84.608-53.728-12.128-99.648-44.512-130.112-84.608zM484.608 205.632c-1.984 36.832-12.64 71.328-29.888 101.504l-85.152-0.064c10.368-31.584 16.576-65.696 17.728-101.408h97.312zM267.328 205.632h95.072c-1.248 35.776-7.904 69.856-19.232 101.504h-75.84v-101.504zM267.328 332.256h65.728c-16.32 35.712-38.944 66.656-65.728 90.624v-90.624zM308.16 416.864c20.768-24.096 38.848-53.216 52-84.608h78.048c-30.4 40.096-76.384 72.48-130.048 84.608zM25.184 180.64c1.984-36.8 12.608-71.296 29.856-101.504l85.152 0.096c-10.368 31.552-16.576 65.728-17.728 101.408h-97.28zM242.432 180.64h-95.104c1.248-35.776 7.904-69.856 19.2-101.504h75.872v101.504zM242.432 54.016h-65.76c16.352-35.68 38.976-66.688 65.76-90.592v90.592zM201.632-30.56c-20.8 24.096-38.88 53.184-52 84.608h-78.080c30.432-40.096 76.352-72.48 130.080-84.608zM387.296 180.64c-1.152-35.712-7.328-69.856-17.728-101.408l85.12-0.096c17.28 30.208 27.904 64.704 29.92 101.472l-97.312 0.032zM267.328 79.136h75.872c11.328 31.648 17.984 65.76 19.232 101.504h-95.104v-101.504zM267.328-36.576c26.784 23.904 49.408 54.912 65.728 90.592h-65.728v-90.592zM438.208 54.016h-78.048c-13.152-31.392-31.232-60.512-52-84.608 53.664 12.16 99.648 44.544 130.048 84.608z" />
<glyph unicode="&#xe65b;" d="M189.888 379.744c0-37.696 30.56-68.256 68.224-68.256s68.256 30.56 68.256 68.256-30.56 68.256-68.256 68.256-68.224-30.56-68.224-68.256zM334.656 319.776c0-37.696 30.528-68.256 68.256-68.256 37.696 0 68.224 30.56 68.224 68.256 0 37.696-30.528 68.256-68.224 68.256-37.728 0-68.256-30.56-68.256-68.256zM428.736 175.008c0-18.848 15.264-34.112 34.112-34.112s34.112 15.296 34.112 34.112c0 18.88-15.264 34.112-34.112 34.112s-34.112-15.232-34.112-34.112zM368.768 30.24c0-18.88 15.296-34.112 34.112-34.112s34.080 15.264 34.080 34.112c0 18.848-15.264 34.112-34.080 34.112s-34.112-15.264-34.112-34.112zM224-29.76v0c0-18.848 15.264-34.080 34.112-34.080 18.88 0 34.112 15.264 34.112 34.080v0c0 18.88-15.264 34.112-34.112 34.112-18.848 0.032-34.112-15.232-34.112-34.112zM79.264 30.24v0c0-18.88 15.264-34.112 34.112-34.112 18.848 0 34.112 15.264 34.112 34.112v0c0 18.848-15.296 34.112-34.112 34.112-18.848 0.032-34.112-15.264-34.112-34.112zM62.176 319.776v0c0-28.256 22.88-51.2 51.2-51.2 28.256 0 51.2 22.944 51.2 51.2v0c0 28.256-22.944 51.2-51.2 51.2-28.288 0-51.2-22.944-51.2-51.2zM15.008 175.008c0-21.184 17.184-38.368 38.4-38.368s38.4 17.184 38.4 38.368c0 21.216-17.184 38.4-38.4 38.4-21.248 0-38.4-17.184-38.4-38.4z" />
<glyph unicode="&#xe65c;" d="M171.456 99.744c-9.344 18.656-28.864 28.224-28.864 28.224s10.272 28.928 41.632 56.704c31.392 27.808 291.552 266.56 291.552 266.56l13.152-12.8c0 0-246.336-275.808-261.76-294.144-24.416-28.96-52.768-47.168-55.712-44.544zM142.048 104.32c-19.36 17.632-60.992 0-82.176-18.528-49.472-43.36-51.264-92.48-46.688-117.184 4.576-24.8 23.072-25.184 22.464-22.528s-9.856 7.904 1.312 28.16c14.176 25.728 36.8 13.568 60.064 22.464 10.624 4.096 41.056 20.32 53.728 45.92 8.32 16.736 13.376 41.6-8.704 61.696z" />
</font>
</defs>
</svg>
